<svg xmlns="http://www.w3.org/2000/svg" viewBox="0 0 512 512" width="512" height="512">
<defs>
  <linearGradient id="m" x1="0.1" y1="0" x2="0.4" y2="1">
    <stop offset="0" stop-color="#66737F"/>
    <stop offset="0.48" stop-color="#2B333D"/>
    <stop offset="1" stop-color="#66737F"/>
  </linearGradient>
  <linearGradient id="rb" x1="0" y1="0" x2="0" y2="1">
    <stop offset="0" stop-color="#1D242C"/>
    <stop offset="1" stop-color="#12161B"/>
  </linearGradient>
</defs>
<path d="M 92 62 H 420 A 14 14 0 0 1 434 76 V 274 C 434 356 356 412 256 462 C 156 412 78 356 78 274 V 76 A 14 14 0 0 1 92 62 Z" fill="#12161B" transform="translate(256,256) scale(1.055) translate(-256,-256)"/>
<path d="M 92 62 H 420 A 14 14 0 0 1 434 76 V 274 C 434 356 356 412 256 462 C 156 412 78 356 78 274 V 76 A 14 14 0 0 1 92 62 Z" fill="url(#m)"/>
<path d="M 92 62 H 420 A 14 14 0 0 1 434 76 V 274 C 434 356 356 412 256 462 C 156 412 78 356 78 274 V 76 A 14 14 0 0 1 92 62 Z" fill="none" stroke="#12161B" stroke-width="8" opacity="0.5" transform="translate(256,256) scale(0.90) translate(-256,-256)"/>
<polygon points="212.00,92.00 216.76,103.45 229.12,104.44 219.70,112.50 222.58,124.56 212.00,118.10 201.42,124.56 204.30,112.50 194.88,104.44 207.24,103.45" fill="#EAF1F7"/>
<polygon points="256.00,92.00 260.76,103.45 273.12,104.44 263.70,112.50 266.58,124.56 256.00,118.10 245.42,124.56 248.30,112.50 238.88,104.44 251.24,103.45" fill="#EAF1F7"/>
<polygon points="300.00,92.00 304.76,103.45 317.12,104.44 307.70,112.50 310.58,124.56 300.00,118.10 289.42,124.56 292.30,112.50 282.88,104.44 295.24,103.45" fill="#EAF1F7"/>
<path d="M 211.86 135.78 A 74.00 74.00 0 0 1 244.14 135.78 L 245.40 152.97 A 57.72 57.72 0 0 1 254.61 156.78 L 267.65 145.52 A 74.00 74.00 0 0 1 290.48 168.35 L 279.22 181.39 A 57.72 57.72 0 0 1 283.03 190.60 L 300.22 191.86 A 74.00 74.00 0 0 1 300.22 224.14 L 283.03 225.40 A 57.72 57.72 0 0 1 279.22 234.61 L 290.48 247.65 A 74.00 74.00 0 0 1 267.65 270.48 L 254.61 259.22 A 57.72 57.72 0 0 1 245.40 263.03 L 244.14 280.22 A 74.00 74.00 0 0 1 211.86 280.22 L 210.60 263.03 A 57.72 57.72 0 0 1 201.39 259.22 L 188.35 270.48 A 74.00 74.00 0 0 1 165.52 247.65 L 176.78 234.61 A 57.72 57.72 0 0 1 172.97 225.40 L 155.78 224.14 A 74.00 74.00 0 0 1 155.78 191.86 L 172.97 190.60 A 57.72 57.72 0 0 1 176.78 181.39 L 165.52 168.35 A 74.00 74.00 0 0 1 188.35 145.52 L 201.39 156.78 A 57.72 57.72 0 0 1 210.60 152.97 L 211.86 135.78 Z M 257.60 208.00 A 29.60 29.60 0 1 0 198.40 208.00 A 29.60 29.60 0 1 0 257.60 208.00 Z" fill="#EAF1F7" fill-rule="evenodd"/><g transform="translate(296.00,262.00) rotate(40)"><g fill="#39424D" stroke="#39424D" stroke-width="22" stroke-linejoin="round"><rect x="-11.47" y="-50.32" width="22.94" height="100.64" rx="6.88"/><path d="M -8.72 -75.22 L -8.72 -51.64 L 8.72 -51.64 L 8.72 -75.22 A 26.38 26.38 0 1 1 -8.72 -75.22 Z"/><path d="M -8.72 75.22 L -8.72 51.64 L 8.72 51.64 L 8.72 75.22 A 26.38 26.38 0 1 0 -8.72 75.22 Z"/></g></g><g transform="translate(296.00,262.00) rotate(40)"><g fill="#EAF1F7"><rect x="-11.47" y="-50.32" width="22.94" height="100.64" rx="6.88"/><path d="M -8.72 -75.22 L -8.72 -51.64 L 8.72 -51.64 L 8.72 -75.22 A 26.38 26.38 0 1 1 -8.72 -75.22 Z"/><path d="M -8.72 75.22 L -8.72 51.64 L 8.72 51.64 L 8.72 75.22 A 26.38 26.38 0 1 0 -8.72 75.22 Z"/></g></g>
<path d="M 40 332 h 66 v 74 h -66 l 24 -37 Z" fill="#12161B"/>
<path d="M 472 332 h -66 v 74 h 66 l -24 -37 Z" fill="#12161B"/>
<rect x="84" y="324" width="344" height="82" rx="8" fill="url(#rb)"/>
<rect x="90" y="330" width="332" height="70" rx="5" fill="none" stroke="#FFFFFF" stroke-width="2.5" opacity="0.30"/>
<g fill="#FFFFFF"><path d="M188 1493H827Q1112 1493 1264.5 1366.5Q1417 1240 1417 1006Q1417 771 1264.5 644.5Q1112 518 827 518H573V0H188ZM573 1214V797H786Q898 797 959.0 851.5Q1020 906 1020 1006Q1020 1106 959.0 1160.0Q898 1214 786 1214Z" transform="translate(128.14,366.00) scale(0.01758,-0.01758)"/><path d="M188 1493H573V291H1249V0H188Z" transform="translate(158.53,366.00) scale(0.01758,-0.01758)"/><path d="M1094 272H492L397 0H10L563 1493H1022L1575 0H1188ZM588 549H997L793 1143Z" transform="translate(185.47,366.00) scale(0.01758,-0.01758)"/><path d="M10 1493H1386V1202H891V0H506V1202H10Z" transform="translate(217.33,366.00) scale(0.01758,-0.01758)"/><path d="M188 1493H573V0H188Z" transform="translate(245.88,366.00) scale(0.01758,-0.01758)"/><path d="M188 1493H618L1161 469V1493H1526V0H1096L553 1024V0H188Z" transform="translate(263.28,366.00) scale(0.01758,-0.01758)"/><path d="M188 1493H573V0H188Z" transform="translate(297.41,366.00) scale(0.01758,-0.01758)"/><path d="M188 1493H573V598Q573 413 633.5 333.5Q694 254 831 254Q969 254 1029.5 333.5Q1090 413 1090 598V1493H1475V598Q1475 281 1316.0 126.0Q1157 -29 831 -29Q506 -29 347.0 126.0Q188 281 188 598Z" transform="translate(314.80,366.00) scale(0.01758,-0.01758)"/><path d="M188 1493H678L1018 694L1360 1493H1849V0H1485V1092L1141 287H897L553 1092V0H188Z" transform="translate(348.03,366.00) scale(0.01758,-0.01758)"/></g>
<g fill="#FFFFFF" opacity="0.9"><path d="M403 1327V766H657Q798 766 875.0 839.0Q952 912 952 1047Q952 1181 875.0 1254.0Q798 1327 657 1327ZM201 1493H657Q908 1493 1036.5 1379.5Q1165 1266 1165 1047Q1165 826 1036.5 713.0Q908 600 657 600H403V0H201Z" transform="translate(204.02,392.00) scale(0.00928,-0.00928)"/><path d="M909 700Q974 678 1035.5 606.0Q1097 534 1159 408L1364 0H1147L956 383Q882 533 812.5 582.0Q743 631 623 631H403V0H201V1493H657Q913 1493 1039.0 1386.0Q1165 1279 1165 1063Q1165 922 1099.5 829.0Q1034 736 909 700ZM403 1327V797H657Q803 797 877.5 864.5Q952 932 952 1063Q952 1194 877.5 1260.5Q803 1327 657 1327Z" transform="translate(217.98,392.00) scale(0.00928,-0.00928)"/><path d="M201 1493H1145V1323H403V881H1114V711H403V170H1163V0H201Z" transform="translate(233.68,392.00) scale(0.00928,-0.00928)"/><path d="M201 1493H502L883 477L1266 1493H1567V0H1370V1311L985 287H782L397 1311V0H201Z" transform="translate(248.18,392.00) scale(0.00928,-0.00928)"/><path d="M201 1493H403V0H201Z" transform="translate(267.08,392.00) scale(0.00928,-0.00928)"/><path d="M178 1493H381V586Q381 346 468.0 240.5Q555 135 750 135Q944 135 1031.0 240.5Q1118 346 1118 586V1493H1321V561Q1321 269 1176.5 120.0Q1032 -29 750 -29Q467 -29 322.5 120.0Q178 269 178 561Z" transform="translate(275.18,392.00) scale(0.00928,-0.00928)"/><path d="M201 1493H502L883 477L1266 1493H1567V0H1370V1311L985 287H782L397 1311V0H201Z" transform="translate(291.59,392.00) scale(0.00928,-0.00928)"/></g>
</svg>